<svg width="94" height="94" viewBox="0 0 94 94" fill="none" xmlns="http://www.w3.org/2000/svg">
<rect x="47" width="66.4681" height="66.4681" rx="7" transform="rotate(45 47 0)" fill="#FC6A57"/>
<path d="M63.7843 59.5124C63.7843 59.7946 63.7843 59.7946 63.7843 60.0769C63.7843 60.3591 63.7843 60.3591 63.5021 60.6413C63.2199 60.9236 63.2199 60.9236 63.2199 60.9236C62.9376 60.9236 62.9376 60.9236 62.6554 60.9236L39.7946 62.617H38.6657H38.1013C36.9723 62.617 35.8434 62.3347 34.7145 61.7703C33.5856 61.2058 32.7389 60.3591 32.1744 59.2302L13.2649 25.6446C12.9826 25.0802 12.4182 24.5157 12.136 24.2335C11.5715 23.9512 11.007 23.669 10.4426 23.669L1.12893 22.8223C0.846699 22.8223 0.564459 22.5401 0.282227 22.2579C-4.31072e-06 21.9756 0 21.6934 0 21.4112C0 21.1289 0 21.1289 0 20.8467C0 20.5645 0.282227 20.5645 0.282227 20.2822C0.564459 20.2822 0.564472 20 0.846703 20C1.12893 20 1.12893 20 1.41116 20L10.4426 20.8467C11.5715 20.8467 12.4182 21.4112 13.2649 21.9756C14.1116 22.5401 14.9583 23.3868 15.5227 24.2335L34.4322 57.819C34.7145 58.3835 35.2789 58.9479 35.8434 59.2302C36.4079 59.5124 37.2546 59.7946 37.819 59.7946H39.2302L62.0909 58.1013C62.3732 58.1013 62.3732 58.1013 62.6554 58.1013C62.9376 58.1013 62.9376 58.1013 63.2199 58.3835L63.5021 58.6657C63.5021 58.9479 63.7843 59.2302 63.7843 59.5124Z" fill="white"/>
<path d="M57.0103 46.8119C56.1636 47.0942 55.5991 47.9409 54.7524 47.6586C54.7524 47.3764 55.0347 47.0942 55.0347 47.0942C54.7524 46.5297 55.3169 46.5297 55.5991 46.2475C55.8814 45.4008 56.4458 45.1185 57.0103 44.2719C57.0103 44.2719 57.0103 44.2719 57.2925 44.2719C58.4215 43.1429 59.8326 42.2962 60.9615 41.1673C61.2438 41.1673 61.526 40.6028 62.0905 40.6028C60.6793 43.4252 58.9859 45.4008 57.0103 46.8119Z" fill="white"/>
<path d="M71.9686 33.5471C71.9686 32.9826 71.6864 32.4181 71.1219 31.8537C70.5574 31.2892 70.2752 31.007 69.7108 30.7247C69.1463 30.4425 68.5818 30.1603 67.7351 30.1603H26.2471C25.9649 30.1603 25.6826 30.1603 25.4004 30.4425C25.1182 30.4425 25.1182 30.7247 24.836 31.007C24.836 31.2892 24.5537 31.5714 24.5537 31.8537C24.5537 32.1359 24.5537 32.4181 24.836 32.7004L36.4074 54.9967C36.6897 55.5611 36.9719 55.8433 37.5364 56.1256C38.1008 56.4078 38.6653 56.69 39.2298 56.4078L62.0905 55.8433C62.9372 55.8433 63.5017 55.5611 64.0661 54.9967C64.6306 54.4322 65.1951 53.8677 65.4773 53.3033L71.6864 35.8049C71.9686 34.676 71.9686 34.1115 71.9686 33.5471ZM64.6306 47.6586C63.5017 48.7876 62.655 50.1987 61.2438 50.7632C61.2438 51.0454 60.9616 51.0454 60.9616 51.3276C60.6794 51.3276 60.6794 51.6099 60.3971 51.6099C60.3971 51.8921 59.8327 51.8921 59.8327 52.1743C59.2682 52.1743 58.986 52.1743 58.986 52.7388C58.1393 52.7388 57.857 53.3033 57.0103 53.021C57.0103 53.021 56.7281 53.021 56.7281 53.3033C56.4459 53.3033 56.1637 53.3033 56.1637 53.021C55.8814 53.021 55.0347 53.021 55.0347 52.7388C54.7525 53.021 54.4703 52.4566 54.188 52.4566C53.3413 51.6099 52.7769 51.3276 52.4946 49.9165C52.2124 49.6343 52.2124 49.352 51.9302 48.7876C51.3657 47.9409 50.2368 48.2231 49.1079 48.2231C48.5434 48.2231 47.6967 47.6586 46.85 47.6586C48.5434 47.6586 49.9545 47.9409 51.3657 47.6586C51.3657 47.0942 51.648 46.5297 51.648 45.9652C51.648 45.683 51.6479 45.1185 51.9302 44.8363C51.9302 44.5541 52.2124 44.5541 52.4946 44.5541C52.7769 44.2719 53.0591 43.7074 53.3413 43.1429C53.9058 42.2962 54.4703 41.7318 55.0347 41.1673C56.1636 40.3206 57.2926 39.1917 58.7037 38.6272C58.986 38.345 59.2682 38.345 59.5504 38.0628C60.1149 38.0628 60.3971 37.4983 60.9616 37.7805C61.8083 37.7805 62.0905 38.6272 62.9372 38.9095C63.2194 38.9095 63.2194 38.9095 63.5017 38.9095C64.3484 39.4739 64.6306 40.3206 64.0661 41.4495C63.7839 41.7318 63.5017 42.014 63.5017 42.2962C63.2194 42.8607 62.9372 43.7074 62.655 43.9896C62.655 44.2719 62.3727 44.2719 62.3727 44.2719C62.0905 44.8363 61.526 45.1186 61.2438 45.683C59.5504 46.2475 58.4215 47.6586 56.7281 48.5053C56.1636 48.7876 55.8814 49.0698 55.317 49.352C55.0347 49.352 54.7525 49.6343 54.4703 49.352C53.6236 51.0454 57.0103 51.0454 57.857 51.0454C58.7037 50.7632 59.2682 50.4809 60.1149 50.1987C62.3728 49.0698 64.6306 47.3764 66.6062 45.9652C65.7595 46.2475 65.1951 47.0942 64.6306 47.6586Z" fill="white"/>
<path d="M39.5127 73.3417C41.4884 73.3417 42.8995 71.6483 42.8995 69.6727C42.8995 67.6971 41.4884 66.0037 39.5127 66.0037C37.5371 66.0037 36.126 67.6971 36.126 69.6727C36.126 71.6483 37.8194 73.3417 39.5127 73.3417Z" fill="white"/>
<path d="M62.3732 67.6971C62.6554 65.7214 61.2442 63.7458 59.5508 63.4636C57.8575 63.1813 56.1641 64.8747 55.8818 66.8504C55.5996 68.826 57.0108 70.8016 58.7042 71.0838C60.6798 71.3661 62.0909 69.9549 62.3732 67.6971Z" fill="white"/>
</svg>
